<svg width="43" height="50" viewBox="0 0 43 50" fill="none" xmlns="http://www.w3.org/2000/svg">
<path d="M15.1536 -4.59048e-05C14.8745 0.0414596 14.608 0.143882 14.3729 0.299954C14.3729 0.299954 11.9402 1.83072 9.32479 3.48649C6.7094 5.14034 3.79979 6.96342 3.1344 7.33265L3.01325 7.39034C0.597863 8.88072 0.0959402 11.3153 0.00940171 12.6807C0.00363248 12.7442 0.00940171 12.7961 0.00940171 12.8634C-0.0117521 13.375 0.00940171 13.7038 0.00940171 13.7038V38.825C0.00940171 42.475 4.26517 44.2307 8.30363 44.2307C9.64979 44.2307 10.9959 44.0134 12.1498 43.6288C12.919 43.2442 13.4709 42.475 13.4709 41.7057V21.5134C13.4709 17.0903 14.4325 15.0134 17.3171 13.2826C18.0863 12.898 26.1517 7.33072 26.1517 7.33072C26.5363 6.94611 26.9325 6.16534 26.9325 5.58842V5.40765C26.9325 4.63842 26.5479 4.04995 25.9709 3.66534C25.394 3.28072 24.6248 3.28072 24.0479 3.66534C23.8556 3.85765 12.1248 11.7557 9.62479 13.1019C7.12479 14.6403 4.79209 15.0115 4.21517 14.2423C4.03632 14.0634 3.88056 13.5153 3.85556 12.9807V12.8596C3.85748 12.3365 3.99209 11.3519 5.05748 10.6961C6.13825 10.0942 8.82094 8.38072 11.4286 6.73072C12.5306 6.03265 12.6671 5.95765 13.5306 5.40765C13.6442 5.87744 13.9306 6.28721 14.3328 6.55537C14.7349 6.82354 15.2233 6.93044 15.7007 6.85479C16.1781 6.77915 16.6095 6.5265 16.909 6.14715C17.2085 5.7678 17.3542 5.28957 17.3171 4.80765V1.92303C17.3192 1.64893 17.2628 1.37753 17.1515 1.12703C17.0401 0.876533 16.8766 0.652727 16.6717 0.470615C16.4668 0.288503 16.2254 0.152294 15.9636 0.0711199C15.7017 -0.0100545 15.4256 -0.0343187 15.1536 -4.59048e-05ZM30.5382 6.73072C30.2324 6.78158 29.9435 6.90562 29.6959 7.09226C29.6959 7.09226 20.0152 13.6057 18.3382 14.723L18.2786 14.7846C16.8863 15.8288 16.0613 17.0711 15.694 18.2076C15.4894 18.8491 15.3881 19.519 15.394 20.1923V20.7942C15.3912 20.8538 15.3912 20.9134 15.394 20.973V44.2307C15.394 47.8846 19.6017 50 23.4479 50C25.1786 50 26.7402 49.6269 27.894 48.8577C30.2017 47.5115 41.3556 38.823 41.3556 38.823C41.9325 38.4384 42.3171 37.8961 42.3171 37.3192V12.3192C42.3171 11.3576 41.944 10.7807 41.1748 10.3961C40.5979 10.0115 39.6498 10.1923 39.0729 10.5769C35.9959 12.8846 27.7132 19.4 25.7902 20.5538C23.0979 22.0923 20.5613 22.4769 19.5998 21.5153C19.2152 21.1307 19.2402 20.7692 19.2402 20.1923C19.2504 19.8589 19.2908 19.5782 19.3613 19.35C19.469 19.0153 19.6882 18.6038 20.5017 17.9692C20.5402 17.9384 20.5209 17.9403 20.5613 17.9096C21.9517 16.9807 26.2036 14.0826 28.9767 12.198C29.1338 12.6195 29.4337 12.9726 29.8242 13.1958C30.2147 13.4191 30.6711 13.4984 31.114 13.42C31.5569 13.3415 31.9583 13.1103 32.2484 12.7666C32.5385 12.4228 32.6989 11.9882 32.7017 11.5384V8.6538C32.7039 8.3797 32.6474 8.1083 32.5361 7.8578C32.4248 7.6073 32.2612 7.3835 32.0563 7.20138C31.8514 7.01927 31.61 6.88306 31.3482 6.80189C31.0864 6.72072 30.8102 6.69645 30.5382 6.73072ZM38.4709 20.7942V24.6403L28.8556 32.0903V28.2442L38.4709 20.7942Z" fill="#CF96D5"/>
</svg>
