<svg width="50" height="50" viewBox="0 0 50 50" fill="none" xmlns="http://www.w3.org/2000/svg">
<path d="M19.252 5C16.3504 4.99916 13.4956 5.72331 10.9517 7.10542C8.4078 8.48753 6.25711 10.4829 4.69872 12.9069C3.14033 15.3308 2.22462 18.1049 2.03635 20.9725C1.84808 23.84 2.39334 26.7082 3.62166 29.3116C3.04279 31.6843 2.52064 34.0702 2.05564 36.4673C1.98487 36.829 2.00408 37.2022 2.11161 37.5548C2.21914 37.9074 2.41176 38.2288 2.67282 38.4912C2.93388 38.7535 3.25553 38.949 3.60996 39.0606C3.96439 39.1723 4.34094 39.1967 4.70707 39.132C6.13972 38.8814 9.25566 38.3121 12.1485 37.6516C14.4933 38.6988 17.0449 39.2133 19.6164 39.1574C22.1879 39.1016 24.7142 38.4769 27.0104 37.3289C29.3066 36.181 31.3144 34.539 32.8869 32.5231C34.4594 30.5073 35.5567 28.1686 36.0984 25.6784C36.6402 23.1882 36.6127 20.6095 36.0179 18.1312C35.4231 15.6529 34.2762 13.3377 32.6611 11.3551C31.0459 9.37263 29.0035 7.77299 26.6834 6.67338C24.3632 5.57376 21.8241 5.00201 19.252 5ZM13.71 15.0116C14.3171 13.9048 15.1173 13.069 16.1337 12.5315C17.1318 12.0031 18.2057 11.8346 19.252 11.8346C20.6172 11.8389 21.9404 12.3022 23.0049 13.1487C24.1938 14.1143 25.001 15.5946 25.001 17.5259C25.001 19.7464 23.4165 20.9512 22.5243 21.6298L22.3288 21.7802C21.3538 22.5385 20.9767 22.9439 20.9767 23.7889C20.9767 24.2419 20.795 24.6763 20.4715 24.9966C20.1481 25.317 19.7094 25.4969 19.252 25.4969C18.7946 25.4969 18.3559 25.317 18.0324 24.9966C17.709 24.6763 17.5273 24.2419 17.5273 23.7889C17.5273 21.2062 19.1623 19.899 20.1994 19.0928C21.3791 18.175 21.5516 17.97 21.5516 17.5259C21.5516 16.6218 21.2089 16.1093 20.8157 15.7928C20.371 15.4426 19.8202 15.2508 19.252 15.2485C18.5736 15.2485 18.1068 15.3601 17.7572 15.5445C17.4284 15.7176 17.0812 16.0228 16.7454 16.6377C16.6375 16.8351 16.4913 17.0095 16.3153 17.1509C16.1393 17.2924 15.9369 17.3981 15.7196 17.4621C15.5023 17.5261 15.2744 17.547 15.049 17.5238C14.8235 17.5005 14.6049 17.4336 14.4056 17.3266C14.2063 17.2197 14.0302 17.075 13.8874 16.9006C13.7445 16.7263 13.6378 16.5258 13.5732 16.3107C13.5086 16.0955 13.4874 15.8698 13.5109 15.6465C13.5344 15.4232 13.602 15.209 13.71 15.0116ZM19.252 27.7744C19.8619 27.7744 20.4468 28.0143 20.878 28.4414C21.3093 28.8685 21.5516 29.4478 21.5516 30.0518C21.5516 30.6558 21.3093 31.2351 20.878 31.6622C20.4468 32.0893 19.8619 32.3292 19.252 32.3292C18.6421 32.3292 18.0572 32.0893 17.6259 31.6622C17.1947 31.2351 16.9524 30.6558 16.9524 30.0518C16.9524 29.4478 17.1947 28.8685 17.6259 28.4414C18.0572 28.0143 18.6421 27.7744 19.252 27.7744ZM19.022 41.439C22.2079 44.3734 26.3993 46.0012 30.7499 45.9939C33.2795 45.9939 35.6826 45.4541 37.8511 44.4817C40.2518 45.0396 42.878 45.593 44.5498 45.9392C45.0204 46.0373 45.5084 46.0164 45.9686 45.8783C46.4289 45.7402 46.8465 45.4894 47.183 45.1492C47.5195 44.8089 47.764 44.3901 47.8937 43.9315C48.0235 43.4729 48.0345 42.9892 47.9256 42.5253C47.5507 40.9243 46.9621 38.4373 46.3803 36.1417C47.4023 33.9735 47.9532 31.6168 47.9971 29.2244C48.0411 26.8319 47.5772 24.457 46.6355 22.2533C45.6938 20.0497 44.2953 18.0665 42.5305 16.4322C40.7657 14.7979 38.674 13.5489 36.3908 12.7661C37.1957 14.2168 37.8212 15.7814 38.2305 17.428C40.169 18.6667 41.763 20.367 42.8665 22.3735C43.9701 24.3799 44.548 26.6283 44.5475 28.9131C44.5475 31.17 43.9956 33.2949 43.0206 35.1692L42.7216 35.7454L42.8826 36.3717C43.4046 38.4123 43.9542 40.6988 44.3566 42.4069C42.2516 41.9695 40.1519 41.5072 38.058 41.0199L37.4486 40.8765L36.8898 41.1543C35.0433 42.0653 32.9575 42.5777 30.7499 42.5777C28.4007 42.5784 26.0903 41.9849 24.0374 40.8537C22.3989 41.2618 20.7138 41.4578 19.0243 41.4367" fill="#CF96D5"/>
</svg>
