<svg width="159" height="57" viewBox="0 0 159 57" fill="none" xmlns="http://www.w3.org/2000/svg">
<path d="M88.903 8.02527C91.6208 8.21685 97.407 8.29049 100.144 8.07894C109.262 7.37446 112.272 19.3545 105.087 23.4622C106.267 25.3867 109.454 31.1326 110.16 33.1488C108.713 33.2619 107.011 33.2516 105.538 33.2737C104.362 33.2902 103.058 33.2145 101.874 33.1705C100.969 31.5248 98.6329 25.9828 97.4657 25.2967L97.1963 25.4065C96.775 26.3783 96.9528 31.7049 96.9304 33.1565C94.4802 33.3491 91.3601 33.2768 88.8788 33.2209C88.6509 28.726 88.9082 23.1966 88.8288 18.5987C88.7856 16.1357 88.6872 10.1926 88.903 8.02527ZM96.9062 18.536C98.0527 18.478 99.8761 18.6158 100.693 17.9672C102.755 14.4424 99.2493 14.3531 96.8285 14.3805C96.9649 15.7692 96.9218 17.1415 96.9062 18.536Z" fill="#191919"/>
<path d="M41.2969 8.06111C41.7642 8.0222 41.8255 8.02776 42.2723 8.16932C42.9473 9.00875 42.7416 13.3291 42.2557 14.1197C41.5162 14.5604 33.0133 14.3738 31.68 14.2988L31.7157 17.7408C38.3403 17.6972 40.1854 15.8015 39.213 23.5738C37.3022 23.7252 33.604 23.646 31.6658 23.5769L31.6901 26.8848C34.2206 26.7738 40.5135 26.7425 42.926 26.9268C43.0873 28.6043 43.0505 30.3014 43.0431 31.9874C43.0374 32.5005 43.0443 32.6084 42.8014 33.0516C41.0355 33.613 26.7986 33.2604 23.939 33.2383C23.6693 31.2713 23.7493 25.2942 23.7845 22.9996C23.857 18.2813 23.6149 12.7158 23.8688 8.07674C29.678 8.14761 35.4878 8.14239 41.2969 8.06111Z" fill="#191919"/>
<path d="M84.9871 8.05899C85.6864 8.05325 85.6829 7.94018 86.1837 8.30215C86.7897 9.60707 86.4116 12.7206 86.3149 14.2937C84.0167 14.514 77.9422 14.3665 75.4896 14.3305L75.5317 17.7334C82.366 17.7178 83.8354 15.7603 83.0497 23.5689C81.2972 23.7316 77.2503 23.639 75.4471 23.5763C75.5183 24.5945 75.4988 25.8508 75.5105 26.8881C78.0216 26.7693 84.3499 26.7472 86.7552 26.9289C86.8415 28.6524 86.8398 30.235 86.8312 31.962C86.8139 32.4666 86.8208 32.5583 86.586 32.9988C85.6743 33.4683 69.7031 33.2671 67.7449 33.2003C67.4904 31.1327 67.586 25.4986 67.6118 23.2152C67.6667 18.3325 67.4809 12.9162 67.6824 8.07948C73.4507 8.14722 79.2199 8.14027 84.9871 8.05899Z" fill="#191919"/>
<path d="M55.9119 7.68345C59.4572 7.45227 62.5457 8.58402 65.4337 10.7121C65.8642 11.0292 66.1465 11.4629 66.1876 12.0083C65.9863 12.966 61.8536 16.465 60.9212 17.1158C59.519 16.0749 58.4486 15.394 56.6104 15.488C55.257 15.55 53.9855 16.1572 53.0822 17.1729C51.6453 18.8103 51.7996 20.3947 51.9314 22.3687C52.0291 22.5205 52.1284 22.671 52.2294 22.8206C54.8693 26.7265 57.6017 26.2916 61.0322 23.8747C62.2523 24.8583 64.2774 26.9547 65.4698 28.108C66.0671 28.6586 66.4373 28.8101 66.2189 29.6387C61.9142 34.653 53.8406 34.5821 48.7555 30.7931C46.1207 28.8274 44.3683 25.8912 43.8823 22.6281C42.7508 14.631 48.2653 8.75858 55.9119 7.68345Z" fill="#191919"/>
<path d="M20.5564 8.05802C21.0808 8.01373 21.1649 8.0073 21.6728 8.13687C22.173 8.85942 21.9437 13.9466 21.4597 14.8595C20.5433 15.3126 16.3288 15.0908 15.0649 15.0667C15.1864 20.4052 15.216 27.9016 15.0262 33.1699C12.5691 33.3148 9.58404 33.2816 7.08034 33.3028C6.92512 31.9163 6.96275 29.7926 6.95101 28.3403C6.98451 23.9524 6.90491 19.4454 7.02612 15.0823C-0.742766 15.1061 -0.193848 16.1813 0.185333 8.11481C6.94773 8.05559 13.8032 8.22893 20.5564 8.05802Z" fill="#191919"/>
<path d="M145.637 39.1845C147.795 40.1408 156.539 37.6486 158.068 42.2288C159.452 46.3778 158.021 48.2335 154.383 49.8705C155.863 51.9171 157.548 54.688 159 56.8641L156.52 56.8247C155.098 54.6388 153.628 52.2 152.29 49.9614L146.311 49.9874C146.317 51.7509 146.241 55.1611 146.466 56.7858L144.266 56.9308L144.268 39.0956L145.637 39.1845ZM146.328 48.2481C148.747 48.2505 153.803 48.6905 155.578 47.1896C156.721 45.5486 157.275 43.4736 155.322 42.189C152.729 40.4811 149.115 41.5382 146.314 41.1708C146.331 43.5299 146.335 45.8889 146.328 48.2481Z" fill="#191919"/>
<path d="M130.998 24.1803C132.635 24.3773 138.699 24.3391 140.711 24.2965C144.183 24.2231 150.633 24.5404 153.746 24.0956C153.677 26.3132 153.735 28.9266 153.734 31.1701C152.819 31.3127 148.141 31.2533 146.915 31.2545L130.986 31.2397C130.94 29.2069 130.867 26.1689 130.998 24.1803Z" fill="#CF96D5"/>
<path d="M138.97 0.0654831C141.322 0.0988313 143.456 0.155799 145.81 0C145.772 5.0566 145.765 10.1134 145.787 15.1701C145.793 17.4312 145.907 21.0136 145.72 23.1815C143.688 23.3177 141.317 23.0758 139.019 23.2178C138.779 20.9281 138.881 14.9871 138.91 12.4979C138.953 8.92013 138.72 3.50504 138.97 0.0654831Z" fill="#CF96D5"/>
<path d="M122.907 16.1358C125.09 16.1257 127.571 16.1728 129.727 16.0753C129.753 18.6516 130.012 38.0228 129.572 39.2574C127.73 39.1024 124.867 39.1952 122.952 39.2004C122.798 36.7689 122.857 33.8383 122.928 31.3855C123.073 26.3891 122.677 21.0878 122.907 16.1358Z" fill="#CF96D5"/>
<path d="M115.208 8.05109C118.649 8.25744 123.112 8.10025 126.654 8.11258C129.772 8.12335 134.828 8.29096 137.812 8.00281C137.774 10.3356 137.769 12.6688 137.8 15.0018C136.707 15.1166 133.224 14.9326 131.886 14.9577C126.281 15.0622 120.481 14.7885 114.895 15.0072C114.89 13.7043 114.641 8.81272 115.208 8.05109Z" fill="#CF96D5"/>
<path d="M29.6411 39.1517L31.9994 39.306C33.1996 40.6026 37.2827 46.126 38.1894 47.6415C40.1939 45.2442 41.9225 42.1364 44.0583 39.8329C44.7628 39.0732 45.7273 39.2085 46.7263 39.2266C46.7068 45.0931 46.7174 50.9598 46.7576 56.8265L44.6296 56.9498L44.6205 44.2326L44.6531 42.4327C42.526 45.0542 40.3259 48.0196 38.2454 50.7029C36.39 48.2475 33.3186 44.5776 31.7525 42.1609C31.8559 46.8507 31.6893 52.2138 31.9623 56.8256C31.2614 56.8202 30.3984 56.8786 29.6844 56.9081C29.7597 50.9895 29.7454 45.07 29.6411 39.1517Z" fill="#191919"/>
<path d="M129.572 39.2575C130.61 39.411 134.655 39.2668 135.907 39.2361L135.986 41.2835C132.428 41.1779 128.657 41.2566 125.074 41.2194C125.119 43.1581 125.122 45.0974 125.082 47.0363C126.973 46.9322 128.945 47.0595 130.855 46.9713C131.699 46.9324 134.194 46.7493 134.676 47.2841C134.691 47.7597 134.786 48.5182 134.552 48.8904C133.093 49.1254 126.914 48.9778 125.07 48.9592L125.117 54.8957C128.581 54.7913 132.371 54.9042 135.916 54.8472L136.012 56.8394C132.188 56.8162 126.704 56.6449 123.009 56.9195C123.019 51.1204 123.116 44.9685 122.952 39.2005C124.867 39.1953 127.729 39.1025 129.572 39.2575Z" fill="#191919"/>
<path d="M99.4845 39.078C100.054 39.2194 100.964 39.2147 101.574 39.2352C101.38 40.7208 101.441 45.357 101.418 47.0623C104.703 46.9548 108.163 47.0486 111.494 46.9815C111.447 44.3545 111.418 41.7271 111.409 39.0997C112.101 39.235 112.852 39.2126 113.56 39.2192C113.507 44.1733 113.598 49.1302 113.573 54.0845C113.567 54.9935 113.595 55.9053 113.526 56.8123L111.457 56.9245L111.456 48.9572C108.113 48.9861 104.77 48.9849 101.427 48.9533C101.494 51.5233 101.453 54.2758 101.455 56.8615C100.859 56.8286 100.078 56.8913 99.4689 56.9216C99.5069 51.4688 99.2186 44.2841 99.4845 39.078Z" fill="#191919"/>
<path d="M56.0399 39.1579C56.3712 39.1643 57.9204 39.1211 57.9895 39.4964C58.742 43.5873 56.9751 49.3468 59.0614 53.0581C60.4051 55.2728 64.8458 55.6255 66.6595 54.0913C70.4676 50.8701 68.1281 44.2161 68.865 39.6034C69.426 38.8772 69.9708 38.9523 70.6314 39.4725C71.0284 39.9715 70.9018 40.6529 70.869 41.3124L70.8871 46.8991C70.8842 49.7529 70.8564 52.8116 68.6865 54.9526C65.8438 57.7574 60.7981 57.6579 58.0413 54.7929C57.1985 53.9209 56.595 52.8439 56.2897 51.6672C55.7605 49.6532 56.0072 41.6785 56.0399 39.1579Z" fill="#191919"/>
<path d="M80.0298 39.1759C80.5771 39.2292 81.5424 39.2157 82.1225 39.2247L82.1208 54.9041C85.1909 54.8051 88.5458 54.8994 91.6953 54.8365C91.6798 55.4934 91.7108 56.1939 91.7281 56.8539C88.677 56.7219 83.0066 56.7155 80.0591 56.9149C80.0919 51.0018 80.0816 45.0888 80.0298 39.1759Z" fill="#191919"/>
<path d="M115.118 24.1957C117.295 24.4083 119.516 24.1392 121.741 24.2738C121.76 25.1727 121.968 30.734 121.591 31.2235L114.812 31.2594C114.838 30.0516 114.698 24.8376 115.118 24.1957Z" fill="#CF96D5"/>
<path d="M153.392 8.06592L153.507 8.10031C153.927 8.73236 153.739 13.9626 153.73 15.0953C151.463 15.0319 149.671 14.9358 147.359 14.9765C146.763 14.6703 146.927 9.03666 146.918 8.09215C149.132 8.12462 151.173 8.13956 153.392 8.06592Z" fill="#CF96D5"/>
<path d="M138.951 32.3394C141.255 32.3142 143.511 32.4 145.787 32.152C145.798 33.3581 145.929 38.2168 145.637 39.1845L144.268 39.0955C142.494 39.0384 140.721 39.0309 138.948 39.0731C138.918 36.8285 138.92 34.5838 138.951 32.3394Z" fill="#CF96D5"/>
<path d="M127.939 0.078495C128.597 0.023262 128.83 0.000681445 129.503 0.099684C129.971 0.68762 129.764 5.84808 129.753 6.9524C127.977 6.85409 125.823 6.88883 124.017 6.87129C123.52 6.87893 123.37 6.90585 122.961 6.63959C122.864 6.3358 122.912 0.898999 122.873 0.122089C124.561 0.120526 126.25 0.105938 127.939 0.078495Z" fill="#CF96D5"/>
</svg>
