<svg width="60" height="60" viewBox="0 0 60 60" fill="none" xmlns="http://www.w3.org/2000/svg">
<path d="M23.75 7.5C20.5956 7.49908 17.4919 8.294 14.7263 9.81117C11.9607 11.3283 9.62262 13.5187 7.92842 16.1796C6.23422 18.8404 5.2387 21.8856 5.03402 25.0334C4.82935 28.1812 5.42213 31.3297 6.7575 34.1875C6.12817 36.7921 5.56052 39.4111 5.055 42.0425C4.97806 42.4395 4.99894 42.8492 5.11584 43.2362C5.23275 43.6233 5.44216 43.9761 5.72597 44.2641C6.00978 44.5521 6.35946 44.7666 6.74478 44.8892C7.13009 45.0117 7.53946 45.0386 7.9375 44.9675C9.495 44.6925 12.8825 44.0675 16.0275 43.3425C18.5766 44.492 21.3505 45.0568 24.1462 44.9955C26.9418 44.9342 29.6883 44.2484 32.1846 42.9883C34.6808 41.7282 36.8637 39.9257 38.5732 37.7128C40.2827 35.5 41.4756 32.9327 42.0646 30.1992C42.6536 27.4656 42.6237 24.6349 41.9771 21.9144C41.3305 19.1939 40.0836 16.6525 38.3277 14.4762C36.5718 12.2999 34.3514 10.544 31.829 9.33691C29.3067 8.12983 26.5463 7.50221 23.75 7.5ZM17.725 18.49C18.385 17.275 19.255 16.3575 20.36 15.7675C21.445 15.1875 22.6125 15.0025 23.75 15.0025C25.2341 15.0072 26.6727 15.5158 27.83 16.445C29.1225 17.505 30 19.13 30 21.25C30 23.6875 28.2775 25.01 27.3075 25.755L27.095 25.92C26.035 26.7525 25.625 27.1975 25.625 28.125C25.625 28.6223 25.4275 29.0992 25.0758 29.4508C24.7242 29.8025 24.2473 30 23.75 30C23.2527 30 22.7758 29.8025 22.4242 29.4508C22.0725 29.0992 21.875 28.6223 21.875 28.125C21.875 25.29 23.6525 23.855 24.78 22.97C26.0625 21.9625 26.25 21.7375 26.25 21.25C26.25 20.2575 25.8775 19.695 25.45 19.3475C24.9665 18.9631 24.3677 18.7526 23.75 18.75C23.0125 18.75 22.505 18.8725 22.125 19.075C21.7675 19.265 21.39 19.6 21.025 20.275C20.9076 20.4917 20.7487 20.6831 20.5574 20.8384C20.366 20.9937 20.146 21.1097 19.9097 21.18C19.6735 21.2502 19.4258 21.2732 19.1807 21.2477C18.9356 21.2222 18.6979 21.1486 18.4812 21.0313C18.2646 20.9139 18.0731 20.755 17.9179 20.5636C17.7626 20.3723 17.6465 20.1522 17.5763 19.916C17.5061 19.6798 17.4831 19.4321 17.5086 19.187C17.5341 18.9419 17.6076 18.7067 17.725 18.49ZM23.75 32.5C24.413 32.5 25.0489 32.7634 25.5178 33.2322C25.9866 33.7011 26.25 34.337 26.25 35C26.25 35.663 25.9866 36.2989 25.5178 36.7678C25.0489 37.2366 24.413 37.5 23.75 37.5C23.087 37.5 22.4511 37.2366 21.9822 36.7678C21.5134 36.2989 21.25 35.663 21.25 35C21.25 34.337 21.5134 33.7011 21.9822 33.2322C22.4511 32.7634 23.087 32.5 23.75 32.5ZM23.5 47.5C26.9635 50.7211 31.5202 52.5081 36.25 52.5C39 52.5 41.6125 51.9075 43.97 50.84C46.58 51.4525 49.435 52.06 51.2525 52.44C51.7641 52.5477 52.2946 52.5247 52.795 52.3731C53.2954 52.2216 53.7494 51.9463 54.1152 51.5727C54.481 51.1992 54.7468 50.7395 54.8879 50.236C55.029 49.7326 55.0409 49.2017 54.9225 48.6925C54.515 46.935 53.875 44.205 53.2425 41.685C54.3536 39.3049 54.9525 36.7179 55.0003 34.0917C55.0481 31.4654 54.5438 28.8584 53.52 26.4394C52.4962 24.0205 50.9758 21.8435 49.0572 20.0494C47.1387 18.2554 44.8647 16.8843 42.3825 16.025C43.2575 17.6175 43.9375 19.335 44.3825 21.1425C46.4899 22.5023 48.2228 24.3688 49.4225 26.5713C50.6223 28.7738 51.2506 31.2419 51.25 33.75C51.25 36.2275 50.65 38.56 49.59 40.6175L49.265 41.25L49.44 41.9375C50.0075 44.1775 50.605 46.6875 51.0425 48.5625C48.754 48.0824 46.4713 47.5749 44.195 47.04L43.5325 46.8825L42.925 47.1875C40.9175 48.1875 38.65 48.75 36.25 48.75C33.6961 48.7507 31.1842 48.0993 28.9525 46.8575C27.1711 47.3055 25.3392 47.5206 23.5025 47.4975" fill="#CF96D5"/>
</svg>
