<svg width="40" height="40" viewBox="0 0 40 40" fill="none" xmlns="http://www.w3.org/2000/svg">
<g clip-path="url(#clip0_22_231)">
<path d="M16.3 15.8889C19.9819 15.8889 22.9666 12.9041 22.9666 9.22221C22.9666 5.54031 19.9819 2.55554 16.3 2.55554C12.6181 2.55554 9.6333 5.54031 9.6333 9.22221C9.6333 12.9041 12.6181 15.8889 16.3 15.8889Z" fill="#B3B3B3"/>
<path d="M18.2666 35.3555C17.8994 34.9924 17.6598 34.52 17.5837 34.0092C17.5076 33.4984 17.599 32.9767 17.8444 32.5222L18.4333 31.4111L17.2222 31.0444C16.7283 30.8899 16.2983 30.5784 15.9975 30.1573C15.6967 29.7362 15.5415 29.2284 15.5555 28.7111V26.4333C15.5546 25.9183 15.7193 25.4166 16.0255 25.0024C16.3316 24.5883 16.7629 24.2835 17.2555 24.1333L18.4666 23.7667L17.8888 22.6555C17.6507 22.2073 17.5601 21.6953 17.6299 21.1926C17.6997 20.6898 17.9264 20.2219 18.2777 19.8555C17.4229 19.7437 16.562 19.6843 15.6999 19.6778C13.1536 19.6178 10.6255 20.1205 8.29577 21.15C5.96606 22.1794 3.89223 23.7103 2.22217 25.6333V34.2444C2.22217 34.5391 2.33923 34.8217 2.5476 35.0301C2.75598 35.2385 3.03859 35.3555 3.33328 35.3555H18.2666Z" fill="#B3B3B3"/>
<path d="M37.4445 26.0667L35.2223 25.4C35.0685 24.8511 34.8523 24.3218 34.5778 23.8222L35.6889 21.7556C35.7319 21.6789 35.7476 21.5899 35.7334 21.5031C35.7193 21.4163 35.6762 21.3369 35.6111 21.2778L34 19.6556C33.938 19.5952 33.8589 19.5553 33.7734 19.5414C33.6879 19.5275 33.6003 19.5402 33.5223 19.5778L31.4667 20.6889C30.9608 20.4138 30.4285 20.1904 29.8778 20.0222L29.2 17.8C29.1702 17.7181 29.1157 17.6474 29.0441 17.5976C28.9725 17.5479 28.8872 17.5216 28.8 17.5222H26.4889C26.4023 17.5246 26.3185 17.5537 26.2489 17.6054C26.1793 17.657 26.1274 17.7289 26.1 17.8111L25.4334 20.0333C24.8726 20.198 24.3321 20.4254 23.8223 20.7111L21.8111 19.6C21.733 19.5585 21.6437 19.5425 21.5559 19.5545C21.4682 19.5665 21.3865 19.6057 21.3223 19.6667L19.6889 21.2667C19.6246 21.3287 19.5822 21.4099 19.5682 21.4981C19.5542 21.5863 19.5692 21.6767 19.6111 21.7556L20.7223 23.7778C20.4243 24.2795 20.1821 24.8123 20 25.3667L17.7778 26.0445C17.6937 26.0688 17.62 26.1199 17.5678 26.1902C17.5156 26.2604 17.4879 26.3458 17.4889 26.4333V28.7111C17.4879 28.7986 17.5156 28.884 17.5678 28.9543C17.62 29.0245 17.6937 29.0757 17.7778 29.1L20 29.7778C20.1667 30.3219 20.3901 30.8471 20.6667 31.3445L19.5556 33.4556C19.5137 33.5344 19.4986 33.6248 19.5126 33.713C19.5267 33.8012 19.5691 33.8825 19.6334 33.9445L21.2889 35.5556C21.3531 35.6165 21.4349 35.6558 21.5226 35.6677C21.6103 35.6797 21.6996 35.6638 21.7778 35.6222L23.8556 34.5111C24.3497 34.7778 24.8713 34.9901 25.4111 35.1445L26.0778 37.4222C26.1058 37.5062 26.1594 37.5793 26.2312 37.6312C26.303 37.683 26.3893 37.711 26.4778 37.7111H28.7556C28.8422 37.7087 28.926 37.6797 28.9956 37.628C29.0652 37.5763 29.1171 37.5045 29.1445 37.4222L29.8111 35.1445C30.3443 34.9911 30.8586 34.7787 31.3445 34.5111L33.4445 35.6222C33.5227 35.6638 33.6119 35.6797 33.6997 35.6677C33.7874 35.6558 33.8692 35.6165 33.9334 35.5556L35.5556 33.9445C35.6166 33.8802 35.6558 33.7985 35.6678 33.7108C35.6797 33.623 35.6638 33.5338 35.6223 33.4556L34.5111 31.3667C34.7763 30.8796 34.9886 30.3656 35.1445 29.8333L37.3667 29.1556C37.4502 29.1287 37.5235 29.0772 37.5771 29.0077C37.6307 28.9383 37.6619 28.8542 37.6667 28.7667V26.4667C37.6694 26.3861 37.6502 26.3063 37.611 26.2359C37.5719 26.1654 37.5143 26.1069 37.4445 26.0667ZM27.6334 31.3111C26.8989 31.3133 26.1803 31.0975 25.5686 30.6911C24.9568 30.2846 24.4794 29.7058 24.1968 29.0279C23.9142 28.35 23.8392 27.6035 23.9811 26.8828C24.123 26.1622 24.4756 25.4999 24.9942 24.9798C25.5127 24.4597 26.174 24.1051 26.8942 23.961C27.6143 23.8169 28.3611 23.8898 29.0399 24.1703C29.7186 24.4509 30.2989 24.9265 30.7071 25.5371C31.1154 26.1476 31.3334 26.8655 31.3334 27.6C31.3334 28.5823 30.9439 29.5246 30.2503 30.2202C29.5568 30.9159 28.6157 31.3082 27.6334 31.3111Z" fill="#B3B3B3"/>
</g>
<defs>
<clipPath id="clip0_22_231">
<rect width="40" height="40" fill="white"/>
</clipPath>
</defs>
</svg>
